<svg focusable="false" aria-hidden="true" fill="currentColor" fill-rule="evenodd" xmlns="http://www.w3.org/2000/svg" viewBox="0 0 24 24"><path d="M7.54 21.52c9.06 0 14.01-7.52 14.01-14.02v-.63c.95-.7 1.79-1.57 2.45-2.56-.88.4-1.83.66-2.83.78a4.95 4.95 0 002.17-2.73c-.95.57-2.01.97-3.13 1.2a4.92 4.92 0 00-8.4 4.49C7.72 7.85 4.1 5.88 1.66 2.9A4.93 4.93 0 003.2 9.48a4.98 4.98 0 01-2.23-.61v.06c0 2.39 1.7 4.38 3.95 4.83a4.8 4.8 0 01-2.22.1 4.92 4.92 0 004.6 3.41A9.88 9.88 0 010 19.32a14 14 0 007.54 2.2z"></path></svg>