<svg focusable="false" aria-hidden="true" fill="currentColor" fill-rule="evenodd" xmlns="http://www.w3.org/2000/svg" viewBox="0 0 24 24"><path d="M21.8 7.45s.2 1.78.2 3.66v1.78c0 1.78-.2 3.66-.2 3.66s-.19 1.57-.76 2.3c-.77.84-1.64.84-2.02.94C16.23 20 12 20 12 20s-5.2 0-6.83-.21c-.48-.1-1.44 0-2.2-.94-.58-.73-.78-2.3-.78-2.3S2 14.77 2 12.89V11.1c0-1.78.2-3.66.2-3.66s.18-1.57.76-2.3c.77-.84 1.64-.84 2.02-.94C7.77 4 12 4 12 4s4.23 0 7.02.21c.38 0 1.25 0 2.02.94.58.73.77 2.3.77 2.3zm-12 7.53l5.48-3.24L9.79 8.5v6.48z"></path></svg>